PathFileType	4	(X/Y/Z)	17_2_34_p1_0-414.trc
DataRate	CameraRate	NumFrames	NumMarkers	Units	OrigDataRate	OrigDataStartFrame	OrigNumFrames
56.0	56.0	4	27	m	56.0	0	415
Frame#	Time	RHip			RKnee			RAnkle			RBigToe			RSmallToe			RHeel			LHip			LKnee			LAnkle			LBigToe			LSmallToe			LHeel			Neck			Head			Nose			RShoulder			RElbow			RWrist			RThumb			RIndex			RPinky			LShoulder			LElbow			LWrist			LThumb			LIndex			LPinky			
		X1	Y1	Z1	X2	Y2	Z2	X3	Y3	Z3	X4	Y4	Z4	X5	Y5	Z5	X6	Y6	Z6	X7	Y7	Z7	X8	Y8	Z8	X9	Y9	Z9	X10	Y10	Z10	X11	Y11	Z11	X12	Y12	Z12	X13	Y13	Z13	X14	Y14	Z14	X15	Y15	Z15	X16	Y16	Z16	X17	Y17	Z17	X18	Y18	Z18	X19	Y19	Z19	X20	Y20	Z20	X21	Y21	Z21	X22	Y22	Z22	X23	Y23	Z23	X24	Y24	Z24	X25	Y25	Z25	X26	Y26	Z26	X27	Y27	Z27	
0	0.0	0.24671044993801097	0.5074997086547159	0.8326238464687465	0.22657163242543005	0.5606182247669826	1.2504977803649073	0.2100764057484716	0.7599476273541883	1.714528732007433	0.23917946131558798	0.5464318650874307	1.7354950598354544	0.288736422152767	0.6079434103431124	1.7458487647273895	0.1937687575411848	0.8122083333356639	1.7557748295541171	0.03970472907351709	0.5409343109754878	0.8497497848007551	0.03187999662726188	0.5814343714232035	1.2669936335519245	0.029423984599590097	0.6700914138027682	1.6939344161827323	0.0839129762017702	0.4997119772730815	1.7240619292798185	0.021267196409821696	0.5162935812321414	1.7206623501419758	0.04265318424106362	0.7172044786005459	1.74563098171817	0.14000654512903649	0.45317773604283995	0.20721699474862915	0.14250484624621249	0.3650856391892973	-0.04358068091371672	0.13798027063753712	0.3165167412440281	0.09282286156895084	0.29461642211087924	0.45042974651265205	0.31256271649015877	0.30285515187161716	0.46004038887682636	0.5950236371591181	0.23441674103338322	0.3049193140656569	0.81588707303484	0.18341992342923313	0.21792837226420225	0.8826291869351672	0.16052665696348095	0.286085068070896	0.9359970371021167	0.16793697584903225	0.353681504410065	0.9445067374869381	-0.011661321854987184	0.44297695150508926	0.31356451371577043	-0.013224415574039685	0.42661859689768955	0.5860651033766251	0.09364009404718478	0.3109004881502867	0.7922402435071965	0.22656867490435834	0.273305079692034	0.85002625082152	0.22685101789548243	0.27576701086528504	0.8897342212475683	0.14956096796549478	0.31545760292795344	0.9486231965352986
1	0.017857142857142856	0.24680204415285167	0.5071210585929878	0.8322772557899147	0.23587029028490866	0.5464161093609677	1.2408947641084045	0.20937407766975827	0.7615586753837348	1.7104284397567597	0.2392529487749124	0.5460199661798628	1.7350938810004108	0.28673065186557595	0.5944416347003981	1.7393972710670838	0.19190685931198556	0.8147444887587281	1.7566816793822222	0.03935044817918577	0.5387814495777953	0.8448022377228368	0.03267867619533713	0.5813986013982492	1.262772678810078	0.028894663267050667	0.6714224611000591	1.6900230360191626	0.08492941584447247	0.49908391245836636	1.7197892808113968	0.021517937943197413	0.5159869301640186	1.7200974905683213	0.04268578062472727	0.7172355105679347	1.7458429065015733	0.13430826700745865	0.4652749481015422	0.2075529436031486	0.1424795276016271	0.36502529516710885	-0.04343300522015575	0.13802116744294962	0.3163501174438662	0.09282537585721294	0.29491806715660734	0.4503610728258584	0.31578769341212876	0.3029112417083037	0.459937639837893	0.5950466637424227	0.2341780937995707	0.3049069618013463	0.8192040906860673	0.18066860307384208	0.23994202175888787	0.8853524005305387	0.16248938481165748	0.29881255854622774	0.9391319833110082	0.1691983023448552	0.36733158860674114	0.9477395389681972	-0.011498488171126456	0.44295106214302504	0.31021944999601386	-0.01314975261064989	0.4265847926028878	0.5861571261340224	0.09367465566954983	0.31067132968921723	0.7920084361561969	0.22626520460087182	0.27217892061150883	0.8494376636848021	0.22642655266472697	0.27491149198069587	0.8786641151692097	0.14785216615842775	0.30499174363954945	0.9459615289238004
2	0.03571428571428571	0.2429054322598323	0.5047287958080251	0.8321279850216231	0.23586990034814934	0.5464052657223083	1.2410509586859546	0.20993215876471422	0.7601058210518108	1.7145389861183045	0.2385043861162278	0.5436121312411538	1.7299692843284578	0.286491828569919	0.5938324851176159	1.7391874506767542	0.1924903111575766	0.8129445495859943	1.7606937283844926	0.039795842136779745	0.5407609885529077	0.8496103655094204	0.032778133792658204	0.5812058935001566	1.262610838128353	0.02890111515871517	0.6713720847809314	1.6900695275672948	0.08482229020328642	0.4990835341409843	1.7197071522374863	0.02148395801648982	0.516039774578114	1.7200710653817692	0.04270362279563474	0.7172705353537151	1.745912800123608	0.13430050458999396	0.46531629766787636	0.20753709634193407	0.1425030898235049	0.3650678253880246	-0.04361785269166427	0.13801912119057355	0.31641502989257914	0.09283547273459028	0.29861740967389544	0.45256235552187535	0.3156948665923386	0.3029270913890677	0.4598742984446732	0.5949756105117034	0.23423939468775598	0.30536568418778626	0.8121752189784985	0.18620997112984572	0.22993804238327595	0.8801059233091135	0.16463828655278223	0.2877731909015128	0.9333402512578821	0.16542752754421614	0.367805051032837	0.9510107581716665	-0.011704469651010983	0.4429803405957469	0.3134752930855251	-0.013183439783819978	0.42649404307577465	0.5860969798682399	0.09374904768697911	0.3106226455246926	0.7920319795387357	0.22604678738695447	0.2718113660262969	0.8492896340402271	0.22605379366928327	0.27496353183544225	0.8823546904433792	0.14755735171466897	0.3040471160077412	0.9456531505486476
3	0.05357142857142857	0.24679205964832474	0.5074290508484609	0.8325161795569282	0.2362676042508676	0.5454602030036688	1.2450052101796683	0.2099150097583974	0.7601739205580641	1.7144891658954657	0.23848605310905585	0.5438257727760218	1.7300307309182432	0.2867925770306791	0.5946941322889573	1.7393821477854516	0.19356947844361538	0.8124271880878601	1.755827309460701	0.039794718824851784	0.5409813302554438	0.8500756099220149	0.03274462646257504	0.5812975971503772	1.2627322883656664	0.029433402352066814	0.6702571199845061	1.6937103337309876	0.08477003071294918	0.4989623693984587	1.7196933169020776	0.021484852041318888	0.5160632349849517	1.7201156503549215	0.04269393061290736	0.7172397125531528	1.7458331581779478	0.13428612447452365	0.4653113384632635	0.20750989290856608	0.1424621808830646	0.3651529218964245	-0.043746026948173054	0.1380169382044431	0.31641190421495363	0.09285201962190164	0.2986335274650057	0.45248554798641943	0.3156302602319239	0.30286704159170263	0.45986870038722133	0.5949906159327721	0.23463008833034094	0.30491386454732305	0.8153867569377471	0.18830562604900813	0.24225828828191784	0.878297702202365	0.16894773174585617	0.3133530716719965	0.9390267188370711	0.1659963486990563	0.3660483043662601	0.9454163960908463	-0.011735086942380757	0.4428705157376995	0.3135049635010574	-0.013085518354683173	0.42628688572949475	0.5863004907942451	0.10105875679043629	0.309767501598748	0.7912552062538192	0.2284128728523264	0.28121930181249155	0.8507307269393871	0.2266315607575161	0.2750862536687607	0.8788249712064741	0.15453397662207408	0.30281284626891875	0.9446564283828889
